<svg xmlns="http://www.w3.org/2000/svg" width="100" height="100" viewBox="0 0 100 100" fill="none">
  <rect width="100" height="100" rx="20" fill="#EEF5F7"/>
  <rect x="22" y="14" width="56" height="72" rx="10" fill="#5D9B53"/>
  <rect x="25" y="17" width="50" height="66" rx="8" fill="#91C16D"/>
  <rect x="29" y="21" width="42" height="58" rx="6" fill="#D5E8B0"/>
  <circle cx="50" cy="43" r="16" fill="#FFF6E8"/>
  <path d="M37 36C37 29 42 24 47 24C46 31 43 36 37 36Z" fill="#8C5A3D"/>
  <path d="M63 36C63 29 58 24 53 24C54 31 57 36 63 36Z" fill="#8C5A3D"/>
  <circle cx="44" cy="43" r="3" fill="#3D2A22"/>
  <circle cx="56" cy="43" r="3" fill="#3D2A22"/>
  <ellipse cx="50" cy="50" rx="7" ry="5" fill="#C98661"/>
  <path d="M45 53C47 56 53 56 55 53" stroke="#6A4734" stroke-linecap="round" stroke-width="2.5"/>
  <text x="18" y="86" fill="#FFFDF7" font-family="'PingFang SC','Hiragino Sans GB','Microsoft YaHei',sans-serif" font-size="22" font-weight="900" stroke="#5C7947" stroke-linejoin="round" stroke-width="6" paint-order="stroke">5天</text>
</svg>
